<svg width="923" height="628" viewBox="0 0 923 628" fill="none" xmlns="http://www.w3.org/2000/svg">
<path d="M312.902 174.224C312.902 206.435 339.014 232.547 371.225 232.547C403.435 232.547 429.547 206.435 429.547 174.224C429.547 142.014 403.435 115.902 371.225 115.902C339.014 115.902 312.902 142.014 312.902 174.224Z" fill="url(#paint0_linear_89_629)"/>
<path d="M464.894 25.7674C432.683 25.7674 406.572 51.8792 406.572 84.0898C406.572 116.3 432.683 142.412 464.894 142.412C497.104 142.412 523.216 116.3 523.216 84.0898C523.216 51.8792 497.104 25.7674 464.894 25.7674Z" fill="url(#paint1_linear_89_629)"/>
<path d="M496.706 177.759C496.706 209.97 522.818 236.081 555.028 236.081C587.239 236.081 613.351 209.97 613.351 177.759C613.351 145.548 587.239 119.437 555.028 119.437C522.818 119.437 496.706 145.548 496.706 177.759Z" fill="url(#paint2_linear_89_629)"/>
<path d="M461.359 209.571C429.149 209.571 403.037 235.683 403.037 267.894C403.037 300.104 429.149 326.216 461.359 326.216C493.57 326.216 519.682 300.104 519.682 267.894C519.682 235.683 493.57 209.571 461.359 209.571Z" fill="url(#paint3_linear_89_629)"/>
<path fill-rule="evenodd" clip-rule="evenodd" d="M312.902 174.224C312.902 257.191 380.16 324.449 463.127 324.449C546.093 324.449 613.351 257.191 613.351 174.224C613.351 91.2577 546.093 24 463.127 24C380.16 24 312.902 91.2577 312.902 174.224ZM376.527 174.224C376.527 222.052 415.299 260.824 463.127 260.824C510.954 260.824 549.726 222.052 549.726 174.224C549.726 126.396 510.954 87.6244 463.127 87.6244C415.299 87.6244 376.527 126.396 376.527 174.224Z" fill="url(#paint4_linear_89_629)"/>
<path d="M463.127 324.449C380.16 324.449 312.902 257.191 312.902 174.224C312.902 299.706 445.453 327.983 445.453 442.861C445.453 433.1 453.366 425.187 463.127 425.187C472.887 425.187 480.8 433.1 480.8 442.861C480.8 327.983 613.351 299.706 613.351 174.224C613.351 257.191 546.093 324.449 463.127 324.449Z" fill="url(#paint5_linear_89_629)"/>
<path d="M445.453 442.861C445.453 455.232 453.366 460.534 463.127 460.534C472.887 460.534 480.8 455.232 480.8 442.861C480.8 433.1 472.887 425.187 463.127 425.187C453.366 425.187 445.453 433.1 445.453 442.861Z" fill="url(#paint6_linear_89_629)"/>
<g filter="url(#filter0_d_89_629)">
<path fill-rule="evenodd" clip-rule="evenodd" d="M312.902 174.224C312.902 257.191 380.16 324.449 463.127 324.449C546.093 324.449 613.351 257.191 613.351 174.224C613.351 91.2577 546.093 24 463.127 24C380.16 24 312.902 91.2577 312.902 174.224ZM376.527 174.224C376.527 222.052 415.299 260.824 463.127 260.824C510.954 260.824 549.726 222.052 549.726 174.224C549.726 126.396 510.954 87.6244 463.127 87.6244C415.299 87.6244 376.527 126.396 376.527 174.224Z" fill="url(#paint7_linear_89_629)"/>
</g>
<path d="M56.5082 529.764C49.878 528.138 46.5827 526.052 46.6224 523.508C46.7385 520.925 50.0432 518.018 56.5365 514.786L61.1201 512.504L74.049 515.675L68.5487 518.413C63.354 520.999 63.1187 522.871 67.8427 524.029C70.1633 524.598 72.5149 524.721 74.8974 524.397C77.4392 524.055 80.1234 523.181 82.9499 521.774C86.3112 520.101 88.4235 518.434 89.2869 516.773C90.2267 515.073 90.2542 512.781 89.3692 509.896C88.3171 506.233 88.5056 503.214 89.9348 500.84C91.4403 498.428 94.523 496.062 99.183 493.742C105.524 490.586 112.153 488.579 119.072 487.722C126.067 486.826 132.879 487.192 139.509 488.818C146.057 490.423 149.231 492.507 149.032 495.069C148.992 497.614 145.726 500.502 139.232 503.734L135.909 505.388L122.98 502.218L127.105 500.164C129.856 498.795 131.262 497.664 131.324 496.772C131.462 495.841 130.412 495.101 128.175 494.552C123.616 493.434 118.778 494.149 113.66 496.697C110.757 498.142 108.874 499.695 108.01 501.356C107.23 503.038 107.282 505.321 108.167 508.206C109.302 511.89 109.075 514.928 107.487 517.319C105.899 519.711 102.583 522.162 97.5414 524.672C90.9717 527.942 84.1479 530.014 77.0701 530.89C70.0752 531.785 63.2212 531.41 56.5082 529.764Z" fill="#5988FF"/>
<path d="M115.779 553.816C109.065 552.578 105.548 550.574 105.225 547.804C104.974 544.988 107.872 541.578 113.921 537.575L170.919 499.849L184.765 502.403L126.914 540.694C124.352 542.389 123.089 543.722 123.125 544.692C123.246 545.678 124.439 546.38 126.704 546.798C128.97 547.216 131.26 547.156 133.573 546.619C135.971 546.098 138.45 544.989 141.012 543.294L198.864 505.003L212.207 507.464L155.209 545.189C149.16 549.193 142.737 551.953 135.939 553.469C129.212 554.939 122.492 555.054 115.779 553.816Z" fill="#5988FF"/>
<path d="M233.253 514.228L253.815 516.908C260.754 517.812 264.588 519.774 265.316 522.793C266.045 525.811 263.762 529.8 258.468 534.758L252.021 540.795C246.727 545.753 240.975 549.289 234.765 551.403C228.555 553.517 221.981 554.122 215.042 553.218L208.442 552.357L181.815 577.293L167.853 575.473L233.253 514.228ZM224.385 544.468C226.67 544.766 228.829 544.549 230.864 543.818C232.983 543.097 235.163 541.687 237.405 539.587L245.16 532.325C247.402 530.225 248.398 528.661 248.148 527.631C247.982 526.613 246.757 525.955 244.472 525.657L237.872 524.797L217.785 543.608L224.385 544.468Z" fill="#5988FF"/>
<path d="M297.841 525.853L318.508 527.55C325.481 528.123 329.664 530.11 331.056 533.512C332.447 536.914 331.119 541.624 327.071 547.643L322.142 554.971C318.094 560.99 313.279 565.414 307.697 568.243C302.115 571.073 295.837 572.201 288.863 571.629L282.229 571.084L261.87 601.355L247.838 600.203L297.841 525.853ZM296.006 561.007C298.302 561.196 300.36 560.804 302.18 559.833C304.085 558.869 305.895 557.112 307.609 554.563L313.538 545.747C315.253 543.198 315.872 541.343 315.396 540.184C315.004 539.031 313.66 538.36 311.364 538.171L304.73 537.627L289.372 560.463L296.006 561.007Z" fill="#5988FF"/>
<path d="M368.122 534.145L382.191 534.694L358.777 607.838L381.928 608.743L378.026 620.934L340.806 619.479L368.122 534.145Z" fill="#5988FF"/>
<path d="M432.692 537.629L471.092 537.568L471.26 550.366L446.94 550.405L447.252 574.083L466.58 574.052L466.748 586.851L447.42 586.882L447.782 614.4L472.102 614.361L472.27 627.16L433.87 627.221L432.692 537.629Z" fill="#5988FF"/>
<path d="M533.043 533.524L553.084 532.039L595.295 586.197L595.55 586.178L571.211 530.696L591.252 529.211L637.743 605.805L624.468 606.789L589.267 548.796L589.012 548.815L614 607.565L602.257 608.435L556.844 551.199L556.589 551.217L591.789 609.21L579.535 610.118L533.043 533.524Z" fill="#5988FF"/>
<path d="M637.448 520.969L656.357 518.486L736.439 577.604L722.479 579.436L706.911 567.653L707.099 567.828L691.235 569.91L701.538 582.185L688.593 583.885L637.448 520.969ZM696.544 559.764L657.894 530.42L657.64 530.454L683.98 561.413L696.544 559.764Z" fill="#5988FF"/>
<path d="M692.501 510.764L712.889 506.983C719.769 505.707 726.497 505.782 733.073 507.209C739.65 508.635 745.967 511.342 752.026 515.33L759.403 520.186C765.462 524.174 768.339 527.519 768.036 530.221C767.732 532.923 764.14 534.912 757.26 536.188L750.716 537.402L781.187 557.459L767.343 560.026L692.501 510.764ZM746.568 529.151C748.834 528.731 749.977 528.068 749.999 527.162C750.104 526.24 748.874 524.935 746.308 523.246L737.433 517.405C734.867 515.716 732.463 514.628 730.219 514.142C728.059 513.641 725.846 513.6 723.581 514.02L717.036 515.234L740.024 530.365L746.568 529.151Z" fill="#5988FF"/>
<path d="M850.78 533.543C844.15 535.169 837.417 535.543 830.581 534.665C823.669 533.75 816.967 531.676 810.473 528.443L805.89 526.162L818.819 522.991L824.319 525.729C829.513 528.315 834.473 529.028 839.197 527.87C841.517 527.301 842.647 526.57 842.585 525.677C842.529 524.725 841.088 523.546 838.262 522.139C834.9 520.466 831.131 519.205 826.952 518.357C822.697 517.471 816.537 516.683 808.471 515.993C798.252 515.094 790.19 514.006 784.285 512.729C778.304 511.415 772.984 509.597 768.324 507.278C761.983 504.122 758.835 501.261 758.878 498.696C758.845 496.094 762.143 493.979 768.773 492.353C775.321 490.748 782.009 490.413 788.838 491.349C795.674 492.227 802.338 494.282 808.832 497.514L812.155 499.168L799.226 502.339L795.101 500.286C792.351 498.917 789.784 498.07 787.402 497.746C784.943 497.384 782.594 497.478 780.357 498.027C775.798 499.145 776.078 500.977 781.197 503.525C784.1 504.97 787.64 506.117 791.819 506.965C796.08 507.793 802.244 508.552 810.31 509.242C820.612 510.121 828.712 511.228 834.61 512.563C840.508 513.897 845.978 515.82 851.02 518.329C857.589 521.6 860.85 524.546 860.8 527.17C860.833 529.772 857.493 531.897 850.78 533.543Z" fill="#5988FF"/>
<defs>
<filter id="filter0_d_89_629" x="284.902" y="0" width="356.449" height="356.449" filterUnits="userSpaceOnUse" color-interpolation-filters="sRGB">
<feFlood flood-opacity="0" result="BackgroundImageFix"/>
<feColorMatrix in="SourceAlpha" type="matrix" values="0 0 0 0 0 0 0 0 0 0 0 0 0 0 0 0 0 0 127 0" result="hardAlpha"/>
<feOffset dy="4"/>
<feGaussianBlur stdDeviation="14"/>
<feComposite in2="hardAlpha" operator="out"/>
<feColorMatrix type="matrix" values="0 0 0 0 0 0 0 0 0 0 0 0 0 0 0 0 0 0 0.25 0"/>
<feBlend mode="normal" in2="BackgroundImageFix" result="effect1_dropShadow_89_629"/>
<feBlend mode="normal" in="SourceGraphic" in2="effect1_dropShadow_89_629" result="shape"/>
</filter>
<linearGradient id="paint0_linear_89_629" x1="429.657" y1="173.446" x2="316.794" y2="173.446" gradientUnits="userSpaceOnUse">
<stop stop-color="#5988FF"/>
<stop offset="1" stop-color="#274DB0"/>
</linearGradient>
<linearGradient id="paint1_linear_89_629" x1="465.462" y1="142.311" x2="465.462" y2="25.5568" gradientUnits="userSpaceOnUse">
<stop stop-color="#5988FF"/>
<stop offset="1" stop-color="#274DB0"/>
</linearGradient>
<linearGradient id="paint2_linear_89_629" x1="496.706" y1="177.457" x2="613.351" y2="177.457" gradientUnits="userSpaceOnUse">
<stop stop-color="#5988FF"/>
<stop offset="1" stop-color="#274DB0"/>
</linearGradient>
<linearGradient id="paint3_linear_89_629" x1="461.661" y1="209.571" x2="461.661" y2="326.216" gradientUnits="userSpaceOnUse">
<stop stop-color="#5988FF"/>
<stop offset="1" stop-color="#274DB0"/>
</linearGradient>
<linearGradient id="paint4_linear_89_629" x1="312.902" y1="241.136" x2="613.351" y2="241.136" gradientUnits="userSpaceOnUse">
<stop stop-color="#5988FF"/>
<stop offset="1" stop-color="#274DB0"/>
</linearGradient>
<linearGradient id="paint5_linear_89_629" x1="312.902" y1="241.136" x2="613.351" y2="241.136" gradientUnits="userSpaceOnUse">
<stop stop-color="#5988FF"/>
<stop offset="1" stop-color="#274DB0"/>
</linearGradient>
<linearGradient id="paint6_linear_89_629" x1="312.902" y1="241.136" x2="613.351" y2="241.136" gradientUnits="userSpaceOnUse">
<stop stop-color="#5988FF"/>
<stop offset="1" stop-color="#274DB0"/>
</linearGradient>
<linearGradient id="paint7_linear_89_629" x1="312.902" y1="241.136" x2="613.351" y2="241.136" gradientUnits="userSpaceOnUse">
<stop stop-color="#5988FF"/>
<stop offset="1" stop-color="#274DB0"/>
</linearGradient>
</defs>
</svg>
